# xmcd
#
# Track frame offsets:
#	150
#	998
#	20233
#	38670
#	56350
#	68603
#	88730
#	103465
#	123405
#	139173
#	160388
#	179433
# Disc length: 2649 seconds
# Revision: 1
# Processed by: cddbd v1.5.2PL0 Copyright (c) Steve Scherf et al.
#
# Submitted via: libkcddb 0.31
#
DISCID=9f0a570c
DTITLE=A natalina da paixão - A natalina da paixão
DYEAR=1900
DGENRE=Contemporary Christian
TTITLE0=A natalina da paixão
TTITLE1=Brandão e Inácio - Louvação
TTITLE2=Brandão - Mutucas
TTITLE3=Inácio Pinheiro - Madre de Deus
TTITLE4=Brandão - Mamãe Cecé
TTITLE5=Inácio Pinheiro - Sentinela
TTITLE6=Roberto Brandão - Mulheres
TTITLE7=Inácio PInheiro - Jerusalém - Cristinas de Luz
TTITLE8=Roberto Brandão - Parteira
TTITLE9=Brandão e Inácio - Natalina de Jesus - Do Senhor
TTITLE10=Inácio Pinheiro - Mariana
TTITLE11=Godão e coro - Aleluia - Romaria
EXTD=
EXTT0=
EXTT1=Godão
EXTT2=Godão
EXTT3=Godão
EXTT4=Bulcão
EXTT5=Godão e César Teixeira
EXTT6=Godão
EXTT7=Bulcão
EXTT8=Godão
EXTT9=Godão
EXTT10=Wellington Reis
EXTT11=Godão
PLAYORDER=
